<svg width="210" height="68" viewBox="0 0 210 68" fill="none" xmlns="http://www.w3.org/2000/svg">
<path d="M55.2121 27.9965C55.2121 43.4588 43.0582 55.9933 28.0655 55.9933C13.0729 55.9933 0.918945 43.4588 0.918945 27.9965C0.918945 12.5343 13.0729 -0.000244141 28.0655 -0.000244141C43.0582 -0.000244141 55.2121 12.5343 55.2121 27.9965ZM9.1355 27.9965C9.1355 38.7787 17.6108 47.5194 28.0655 47.5194C38.5203 47.5194 46.9956 38.7787 46.9956 27.9965C46.9956 17.2143 38.5203 8.47364 28.0655 8.47364C17.6108 8.47364 9.1355 17.2143 9.1355 27.9965Z" fill="#10162F"/>
<path d="M40.8828 49.0076C39.3114 47.2716 39.4021 44.5504 41.0854 42.9298C42.7687 41.3092 45.4072 41.4027 46.9786 43.1387L61.325 58.9877C62.8964 60.7238 62.8057 63.4449 61.1224 65.0655C59.4391 66.6862 56.8006 66.5926 55.2292 64.8566L40.8828 49.0076Z" fill="#10162F"/>
<path d="M71.6298 43.2236C67.4287 43.2236 64.4038 42.3571 62.5551 40.6239C60.7063 38.866 59.7822 36.0559 59.7822 32.1935V22.5375L59.8182 18.7865L59.7822 16.5582H67.8486V30.3366C67.8486 31.4755 67.9329 32.4906 68.1007 33.3819C68.2686 34.2485 68.6287 34.9293 69.181 35.4245C69.7334 35.9197 70.5733 36.1673 71.7018 36.1673C72.8541 36.1673 73.7062 35.9445 74.2586 35.4988C74.8109 35.0532 75.171 34.3971 75.3389 33.5305C75.5068 32.6639 75.591 31.5993 75.591 30.3366V16.5582H83.4773V32.1935C83.4773 34.7189 83.0812 36.7987 82.289 38.4328C81.4967 40.0421 80.2364 41.2429 78.5078 42.0352C76.7793 42.8275 74.4868 43.2236 71.6298 43.2236ZM88.1521 42.8523L87.4319 40.6239L88.1521 36.9101V16.5582H106.698L108.498 17.6723L106.121 23.9859L102.88 23.6145H96.1465V26.5856H105.041V32.7134H100.072L96.1465 32.342V35.7959H106.121L110.407 40.4754L108.282 42.8523H88.1521ZM122.119 43.2236C120.798 43.2236 119.49 43.0998 118.194 42.8523C116.921 42.6294 115.793 42.3323 114.809 41.9609C113.824 41.5896 113.116 41.2182 112.684 40.8468V33.0848C113.596 33.6048 114.617 34.0752 115.745 34.4961C116.873 34.917 118.014 35.2513 119.166 35.4988C120.342 35.7217 121.459 35.8331 122.515 35.8331C123.979 35.8331 124.712 35.4864 124.712 34.7932C124.712 34.4465 124.556 34.1618 124.244 33.939C123.956 33.6914 123.439 33.4315 122.695 33.1591C121.951 32.8867 120.895 32.5401 119.526 32.1192C117.942 31.5993 116.585 31.0546 115.457 30.4851C114.352 29.9156 113.5 29.1853 112.9 28.2939C112.324 27.4026 112.036 26.2142 112.036 24.7286C112.036 22.1537 113.032 20.0863 115.025 18.5265C117.017 16.9667 119.934 16.1868 123.776 16.1868C124.543 16.1868 125.36 16.2239 126.224 16.2982C127.112 16.3477 127.82 16.422 128.349 16.521L132.778 19.6035L130.978 25.2486L121.759 22.8346C120.798 22.8346 120.319 23.1688 120.319 23.8373C120.319 24.3573 120.618 24.7905 121.219 25.1372C121.843 25.459 122.959 25.9047 124.568 26.4742C126.704 27.2169 128.397 27.9844 129.645 28.7767C130.917 29.5443 131.83 30.4232 132.382 31.4136C132.934 32.4039 133.21 33.58 133.21 34.9417C133.21 37.4176 132.286 39.4231 130.438 40.9582C128.589 42.4685 125.816 43.2236 122.119 43.2236ZM142.638 42.8523V23.6516L135.436 24.023V16.5582H157.943V24.023L150.56 23.6516V36.9101L150.957 40.6239L150.56 42.8523H142.638ZM166.586 42.8523V23.6516L159.384 24.023V16.5582H181.891V24.023L174.509 23.6516V36.9101L174.905 40.6239L174.509 42.8523H166.586ZM192.084 42.8523V32.0821L183.153 18.7865V16.5582H192.192L195.793 24.2087H196.513L200.078 16.5582H209.081V18.7865L199.898 32.3049L200.114 36.0559V42.8523H192.084Z" fill="#10162F"/>
</svg>
